<?xml version="1.0" standalone="no"?>
<!DOCTYPE svg PUBLIC "-//W3C//DTD SVG 20010904//EN"
 "http://www.w3.org/TR/2001/REC-SVG-20010904/DTD/svg10.dtd">
<svg version="1.0" xmlns="http://www.w3.org/2000/svg"
 width="785.000000pt" height="250.000000pt" viewBox="0 0 785.000000 250.000000"
 preserveAspectRatio="xMidYMid meet">

<g transform="translate(0.000000,250.000000) scale(0.100000,-0.100000)"
fill="#000000" stroke="none">
<path d="M2491 2368 c-66 -84 -109 -156 -117 -197 -6 -26 -4 -33 7 -29 8 2 19
15 25 27 6 12 20 32 31 44 10 12 31 41 46 65 15 23 32 42 37 42 13 0 13 -1 -5
-43 -21 -50 -20 -71 4 -64 11 3 -6 -19 -37 -48 -31 -29 -54 -56 -50 -60 15
-15 65 9 105 50 35 37 42 52 48 98 6 50 2 113 -11 160 -9 31 -33 18 -83 -45z"/>
<path d="M5394 2405 c-13 -51 1 -198 21 -233 28 -48 155 -109 143 -69 -2 6
-23 21 -46 32 -23 11 -42 25 -42 33 0 7 -9 31 -21 53 -11 23 -19 54 -17 72 l3
32 16 -35 c18 -41 44 -64 59 -55 5 3 10 -2 10 -14 0 -30 43 -76 64 -68 22 9
15 46 -18 97 -46 69 -139 180 -152 180 -8 0 -16 -11 -20 -25z"/>
<path d="M2705 2273 c-38 -8 -67 -27 -82 -56 -19 -38 -9 -46 21 -18 14 13 28
21 33 18 5 -3 29 -1 54 4 32 8 55 7 84 -2 l40 -13 -50 -7 c-27 -5 -55 -15 -61
-23 -6 -9 -26 -16 -46 -16 -32 0 -58 -14 -58 -32 0 -16 89 -8 185 17 54 13
100 27 103 30 10 9 -40 54 -82 73 -44 21 -108 32 -141 25z"/>
<path d="M5166 2269 c-42 -10 -125 -66 -126 -85 0 -13 198 -67 251 -68 21 -1
40 4 41 9 3 9 -52 25 -133 39 -19 4 -44 13 -55 21 -17 13 -13 14 43 15 51 0
61 3 57 15 -9 22 3 18 44 -14 20 -15 45 -31 56 -35 16 -5 17 -2 12 20 -12 45
-37 73 -75 84 -42 12 -62 11 -115 -1z"/>
<path d="M2042 2200 c-16 -27 -15 -50 3 -50 16 0 35 30 35 54 0 22 -23 20 -38
-4z"/>
<path d="M5794 2166 c-6 -17 12 -56 26 -56 5 0 25 -14 45 -31 20 -18 38 -30
40 -27 2 2 -14 32 -37 66 -40 61 -63 76 -74 48z"/>
<path d="M2107 2142 c-20 -22 -22 -62 -3 -62 18 0 35 22 38 50 4 30 -14 36
-35 12z"/>
<path d="M5896 2133 c9 -38 22 -50 30 -28 8 19 -5 46 -25 53 -8 3 -10 -4 -5
-25z"/>
<path d="M5962 2117 c-12 -13 -27 -37 -33 -55 -12 -35 -32 -40 -63 -17 -20 15
-72 20 -100 9 -22 -8 -20 -30 7 -67 20 -29 22 -43 22 -165 0 -130 1 -134 24
-153 74 -60 171 67 192 248 5 48 14 111 21 140 6 28 8 58 5 67 -9 23 -50 19
-75 -7z"/>
<path d="M1937 2109 c-21 -12 -20 -20 25 -208 32 -138 46 -171 91 -218 33 -35
62 -41 92 -19 17 12 20 33 26 165 7 145 9 153 35 188 26 35 27 36 8 50 -24 18
-71 10 -99 -17 -31 -29 -45 -25 -45 14 0 19 -4 38 -10 41 -6 4 -10 -6 -10 -21
l0 -28 -27 26 c-34 32 -62 40 -86 27z"/>
<path d="M2493 2086 c-93 -30 -151 -86 -199 -191 -53 -114 -17 -293 91 -461
24 -38 42 -70 40 -72 -2 -2 -44 21 -93 51 -104 62 -272 138 -363 164 -51 14
-103 17 -249 17 -178 0 -188 -1 -253 -27 -131 -51 -185 -87 -268 -176 -57 -60
-92 -109 -121 -167 -38 -77 -41 -89 -45 -191 -7 -139 6 -207 61 -318 105 -212
235 -305 462 -330 166 -18 360 79 429 215 44 87 51 204 17 290 -30 77 -128
165 -174 158 -22 -4 -22 -5 -3 -13 105 -44 165 -139 165 -261 0 -139 -58 -235
-181 -297 -62 -32 -88 -40 -155 -44 -164 -11 -305 35 -398 130 -141 145 -206
409 -143 587 61 171 179 280 387 355 61 22 98 28 196 32 173 8 273 -17 509
-126 92 -43 128 -68 120 -82 -3 -4 3 -7 12 -7 28 1 217 -107 309 -178 46 -35
103 -73 126 -85 24 -12 86 -55 139 -95 161 -122 439 -291 439 -267 0 4 -40 33
-89 63 -121 74 -627 458 -720 545 -266 251 -311 590 -94 708 104 56 184 55
269 -4 79 -54 121 -145 102 -220 -20 -75 -108 -149 -180 -149 -42 0 -102 40
-124 82 -17 32 -22 106 -10 127 11 17 82 51 107 51 12 0 37 -11 55 -25 40 -31
54 -32 28 -4 -49 55 -130 55 -185 -1 -56 -55 -51 -127 14 -194 51 -53 111 -74
168 -57 140 42 205 191 139 321 -25 48 -83 106 -133 131 -52 27 -147 34 -204
15z"/>
<path d="M5290 2079 c-55 -25 -124 -90 -153 -144 -45 -86 -20 -193 61 -267 71
-64 148 -72 223 -23 45 29 69 79 69 143 0 68 -6 79 -53 103 -50 26 -102 28
-124 6 -15 -15 -14 -15 19 -5 44 13 78 5 115 -26 24 -21 28 -32 28 -74 0 -87
-61 -146 -150 -146 -45 0 -60 5 -91 30 -65 53 -79 78 -79 148 0 84 37 146 115
193 75 45 106 49 187 24 89 -26 141 -71 177 -151 62 -138 14 -327 -130 -510
-48 -61 -220 -205 -339 -284 -38 -25 -79 -55 -90 -65 -49 -46 -230 -181 -354
-263 -75 -50 -125 -87 -111 -83 44 14 202 105 308 179 56 39 144 99 195 133
50 34 142 98 203 142 261 188 576 346 775 386 114 24 276 16 374 -17 260 -87
418 -284 417 -520 0 -102 -15 -164 -62 -263 -59 -125 -117 -196 -182 -227
-184 -88 -359 -92 -493 -13 -112 65 -171 178 -163 309 7 107 56 184 148 232
27 14 31 19 17 22 -59 12 -147 -76 -178 -181 -31 -100 -24 -192 21 -276 38
-71 64 -96 155 -146 144 -81 311 -82 475 -3 115 55 190 132 250 254 53 109 69
179 70 307 0 163 -44 262 -179 398 -70 70 -102 94 -171 127 -118 57 -168 66
-360 66 -125 0 -181 -4 -230 -17 -63 -17 -353 -154 -417 -197 -41 -27 -42 -16
-4 36 78 106 142 311 126 405 -8 48 -85 179 -125 212 -37 32 -146 67 -204 67
-22 0 -61 -10 -86 -21z"/>
<path d="M3076 1918 c-132 -148 -202 -361 -176 -535 17 -117 65 -249 110 -308
51 -66 150 -163 150 -147 0 7 -22 48 -49 90 -107 166 -151 302 -151 461 0 159
39 290 122 411 78 114 76 120 -6 28z"/>
<path d="M4836 1970 c5 -8 28 -43 51 -77 86 -123 123 -249 123 -422 0 -80 -5
-117 -26 -183 -31 -97 -77 -196 -135 -284 -56 -86 -45 -103 21 -34 88 92 137
169 171 271 28 81 33 108 33 194 0 183 -67 358 -185 485 -33 36 -57 58 -53 50z"/>
<path d="M1620 1940 c-12 -23 -5 -56 18 -82 14 -16 13 -20 -3 -38 -10 -11 -33
-25 -51 -32 -22 -8 -34 -19 -34 -30 0 -26 19 -22 52 9 32 31 48 25 24 -9 -9
-12 -16 -40 -16 -61 0 -36 2 -39 23 -32 12 4 57 11 100 15 43 4 85 14 94 22
29 24 43 72 32 111 -8 31 -18 40 -74 66 -36 17 -68 31 -72 31 -3 0 -21 11 -39
25 -39 30 -40 30 -54 5z"/>
<path d="M6263 1922 c-17 -15 -53 -35 -80 -44 -87 -31 -108 -116 -42 -172 27
-23 39 -26 114 -26 46 0 87 -4 90 -10 13 -20 25 -9 25 23 0 17 -9 46 -20 62
-27 40 -25 53 3 27 13 -12 29 -22 35 -22 20 0 13 27 -10 42 -20 13 -21 17 -9
32 7 9 22 16 32 16 24 0 32 15 15 29 -11 10 -21 6 -49 -19 -40 -35 -52 -38
-37 -11 11 22 13 61 4 85 -9 23 -35 19 -71 -12z"/>
<path d="M1575 1870 c-3 -5 4 -19 15 -30 24 -24 45 -18 30 9 -11 22 -37 34
-45 21z"/>
<path d="M3525 1806 c-76 -20 -96 -30 -157 -80 -71 -58 -152 -177 -167 -246
-16 -76 -14 -285 4 -355 35 -136 159 -336 266 -427 30 -25 83 -64 118 -87 105
-67 107 -56 10 54 -143 163 -173 252 -167 505 3 153 3 156 36 215 41 76 133
180 181 205 51 25 121 104 121 134 0 31 -48 69 -105 85 -49 13 -76 13 -140 -3z"/>
<path d="M4298 1806 c-57 -21 -87 -44 -94 -71 -8 -32 11 -62 73 -111 92 -75
209 -200 234 -250 23 -47 24 -57 24 -244 -1 -185 -2 -198 -26 -255 -33 -80
-90 -165 -164 -244 -48 -51 -55 -62 -35 -56 53 16 148 82 216 149 194 195 291
453 255 684 -19 120 -45 176 -124 258 -114 121 -260 178 -359 140z"/>
<path d="M2684 1768 l-19 -23 23 19 c21 18 27 26 19 26 -2 0 -12 -10 -23 -22z"/>
<path d="M1135 1545 c-124 -32 -135 -37 -223 -102 -120 -88 -215 -189 -236
-248 -27 -79 -32 -186 -12 -240 20 -51 39 -65 88 -65 43 0 86 27 130 81 46 57
62 90 82 167 29 116 62 169 183 295 62 64 113 122 113 127 0 15 -25 12 -125
-15z"/>
<path d="M6700 1561 c0 -5 28 -33 62 -63 113 -98 238 -278 238 -344 0 -61 85
-195 149 -235 59 -38 95 -37 131 1 53 57 53 190 -1 291 -38 70 -154 187 -244
245 -78 50 -150 79 -247 99 -81 18 -88 18 -88 6z"/>
<path d="M1665 1401 c-86 -25 -128 -45 -205 -96 -84 -56 -145 -121 -175 -188
-25 -53 -37 -134 -21 -139 4 -2 33 40 63 92 58 100 76 126 73 100 -4 -28 0
-40 14 -40 20 0 81 72 111 129 29 57 69 91 140 117 40 15 78 19 195 18 126 0
163 -5 283 -32 162 -38 208 -41 87 -6 -228 65 -440 82 -565 45z"/>
<path d="M3796 1410 c-81 -25 -173 -130 -206 -237 -35 -112 -24 -262 26 -368
22 -46 113 -169 121 -162 1 2 -11 35 -27 74 -32 76 -53 192 -44 245 2 18 14
67 26 108 32 112 85 176 222 273 29 20 35 61 10 71 -22 8 -93 6 -128 -4z"/>
<path d="M4031 1406 c-19 -22 1 -50 68 -96 74 -50 112 -95 159 -189 37 -75 37
-75 37 -205 0 -127 -1 -133 -33 -200 -17 -38 -32 -71 -32 -73 0 -22 82 85 130
171 30 52 34 68 38 157 8 170 -24 271 -117 366 -25 25 -64 54 -86 64 -49 23
-147 25 -164 5z"/>
<path d="M5937 1345 c-55 -15 -78 -31 -32 -22 68 14 273 19 345 8 173 -25 210
-54 305 -241 36 -72 71 -130 77 -130 17 0 2 113 -22 167 -25 56 -25 53 3 50
43 -4 15 72 -44 115 -14 10 -56 22 -99 28 -41 5 -120 16 -175 25 -120 18 -292
18 -358 0z"/>
<path d="M5651 1275 c-96 -35 -116 -45 -89 -45 14 0 208 68 217 76 15 13 -48
-2 -128 -31z"/>
<path d="M5470 1200 c-8 -5 -12 -11 -9 -14 3 -3 14 1 25 9 21 16 8 20 -16 5z"/>
<path d="M1609 1001 c-27 -26 -49 -54 -49 -62 1 -8 14 1 30 20 16 18 48 47 72
62 37 25 40 29 19 29 -15 0 -41 -17 -72 -49z"/>
<path d="M6294 1037 c42 -26 84 -69 99 -99 9 -18 17 -27 17 -20 1 47 -78 133
-120 131 -11 0 -11 -3 4 -12z"/>
<path d="M1551 874 c0 -11 3 -14 6 -6 3 7 2 16 -1 19 -3 4 -6 -2 -5 -13z"/>
<path d="M6406 881 c-4 -5 -2 -12 3 -15 5 -4 12 -2 15 3 4 5 2 12 -3 15 -5 4
-12 2 -15 -3z"/>
<path d="M5261 864 c-51 -8 -125 -23 -165 -34 -215 -61 -242 -72 -369 -147
-121 -73 -227 -152 -183 -139 86 28 212 38 401 33 211 -6 270 -15 400 -64 81
-31 134 -68 260 -182 110 -99 169 -131 243 -131 68 0 90 12 112 63 45 102 34
204 -36 337 -36 70 -118 170 -138 170 -6 0 -51 16 -99 35 -78 32 -180 56 -292
67 -22 3 -82 -1 -134 -8z"/>
<path d="M7020 867 c0 -7 12 -30 27 -52 15 -22 28 -51 29 -65 0 -14 6 -56 14
-93 10 -56 10 -77 -1 -115 -12 -43 -14 -45 -20 -22 -4 14 -7 39 -8 55 -1 17
-6 48 -12 69 l-11 40 -20 -25 c-14 -17 -18 -19 -14 -6 15 45 16 95 4 136 -28
94 -54 42 -37 -75 16 -117 83 -354 99 -354 15 0 57 148 64 225 9 95 -6 169
-50 232 -35 51 -64 74 -64 50z"/>
<path d="M2432 854 c-282 -62 -442 -229 -442 -463 0 -136 39 -191 136 -191 73
0 113 22 230 125 165 147 202 169 360 215 114 33 231 43 426 36 101 -4 205 -9
233 -12 44 -6 48 -5 36 9 -18 23 -153 108 -236 149 -89 45 -261 101 -392 127
-117 24 -256 26 -351 5z"/>
<path d="M892 826 c-44 -51 -57 -98 -56 -206 1 -74 7 -113 28 -177 15 -46 31
-83 36 -83 10 0 39 87 71 210 23 91 33 275 14 275 -5 0 -10 -22 -10 -50 0 -27
-3 -54 -6 -60 -4 -5 -9 -28 -13 -50 -13 -78 -40 -175 -49 -175 -6 0 -8 32 -4
79 5 84 2 98 -20 80 -20 -17 -16 -5 22 70 33 65 45 121 26 121 -5 0 -22 -15
-39 -34z"/>
<path d="M6393 819 c-7 -18 -11 -34 -9 -37 7 -7 27 39 24 55 -2 9 -8 2 -15
-18z"/>
<path d="M1076 488 c4 -13 13 -32 20 -43 8 -11 14 -37 14 -58 0 -21 12 -60 27
-90 15 -29 35 -70 46 -92 l18 -40 -45 44 c-25 24 -50 57 -57 73 -13 32 -17 34
-34 12 -10 -14 -13 -3 -18 63 -7 89 -21 137 -40 131 -8 -3 -13 -31 -15 -78 -5
-136 63 -230 232 -320 36 -19 67 -32 70 -29 4 3 -14 44 -39 91 -24 46 -60 125
-79 176 -18 50 -46 112 -60 137 -28 47 -52 61 -40 23z"/>
<path d="M6950 450 c0 -53 -6 -77 -41 -151 -23 -48 -49 -90 -58 -93 -9 -3 -27
-13 -41 -23 l-25 -18 26 35 c30 41 59 94 59 110 0 7 -8 9 -20 5 -26 -8 -25 -5
10 40 25 32 30 47 30 93 0 48 -2 53 -16 41 -17 -14 -57 -88 -69 -129 -15 -51
-108 -246 -132 -278 -13 -17 -21 -32 -18 -32 3 0 33 13 68 29 98 45 200 131
236 199 31 60 32 195 2 225 -8 8 -11 -7 -11 -53z"/>
</g>
</svg>
