<?xml version="1.0" standalone="no"?>
<!DOCTYPE svg PUBLIC "-//W3C//DTD SVG 20010904//EN"
 "http://www.w3.org/TR/2001/REC-SVG-20010904/DTD/svg10.dtd">
<svg version="1.0" xmlns="http://www.w3.org/2000/svg"
 width="660.000000pt" height="266.000000pt" viewBox="0 0 660.000000 266.000000"
 preserveAspectRatio="xMidYMid meet">

<g transform="translate(0.000000,266.000000) scale(0.100000,-0.100000)"
fill="#000000" stroke="none">
<path d="M5769 2012 c-42 -35 2 -71 50 -41 44 28 121 -29 142 -104 35 -131
-62 -292 -225 -372 -39 -20 -116 -46 -171 -60 -85 -21 -547 -105 -575 -105 -6
0 -10 -5 -10 -11 0 -11 95 -9 520 12 395 19 529 41 653 106 124 65 201 159
233 283 37 147 -23 260 -140 260 -41 0 -66 -22 -66 -58 0 -47 38 -74 62 -44 9
11 9 14 1 8 -18 -10 -53 12 -53 34 0 11 9 24 19 30 58 30 131 -18 151 -98 28
-118 -54 -259 -202 -345 -145 -86 -461 -149 -733 -146 l-80 1 150 37 c227 58
333 107 409 192 53 59 80 131 79 214 -1 98 -39 167 -115 206 -47 24 -70 24
-99 1z"/>
<path d="M785 2010 c-35 -14 -93 -87 -105 -132 -28 -103 5 -220 85 -302 74
-76 243 -147 452 -189 62 -13 116 -27 120 -31 17 -19 -418 20 -554 48 -221 47
-403 153 -457 269 -26 56 -39 150 -26 197 13 48 63 90 107 90 55 0 72 -53 25
-76 -18 -9 -20 -13 -9 -17 21 -8 45 13 52 45 11 42 -26 72 -81 65 -57 -6 -89
-28 -115 -79 -18 -35 -21 -54 -17 -117 6 -102 41 -175 124 -257 104 -105 200
-141 439 -169 209 -23 840 -47 824 -30 -3 2 -108 23 -234 45 -277 50 -394 80
-491 124 -136 63 -222 171 -231 291 -7 76 9 126 48 159 39 33 93 44 114 22 30
-30 58 -14 47 26 -6 26 -73 37 -117 18z"/>
<path d="M1644 1926 c-42 -19 -91 -95 -99 -156 -14 -99 43 -214 132 -271 60
-38 127 -62 288 -106 145 -39 181 -58 95 -49 -30 3 -120 11 -200 17 -261 19
-333 33 -535 104 -16 6 -15 3 5 -14 l25 -22 -30 7 c-121 26 -244 86 -322 157
-70 64 -70 114 0 88 34 -13 44 2 17 29 -50 50 -127 -4 -101 -73 17 -43 72 -97
130 -126 147 -74 422 -140 686 -166 243 -23 853 -55 1021 -54 l149 1 -155 19
c-160 18 -419 71 -690 139 -257 65 -325 94 -394 170 -45 50 -56 77 -56 137 0
88 57 153 134 153 44 0 45 -9 6 -38 -35 -26 -38 -54 -9 -83 27 -27 66 -21 92
13 23 31 18 64 -17 104 -19 23 -32 28 -82 31 -36 2 -71 -2 -90 -11z"/>
<path d="M4861 1924 c-30 -21 -53 -77 -45 -109 12 -47 81 -62 108 -23 23 33
20 54 -14 78 -41 29 -38 40 11 40 108 0 160 -117 105 -235 -56 -121 -164 -167
-626 -270 -313 -69 -390 -83 -547 -99 l-128 -14 165 -1 c272 -2 1025 45 1220
75 159 25 393 91 483 136 49 24 124 93 143 130 13 25 13 32 0 57 -22 42 -71
56 -96 26 -16 -19 -5 -54 12 -37 18 18 36 15 48 -8 28 -53 -184 -192 -351
-229 -34 -8 -38 -7 -28 5 16 20 0 18 -62 -6 -60 -24 -149 -44 -264 -59 -90
-12 -468 -42 -472 -37 -2 2 62 20 141 40 80 20 173 48 208 62 129 53 215 142
239 249 10 46 9 61 -5 107 -30 90 -91 138 -178 138 -24 0 -54 -7 -67 -16z"/>
<path d="M3290 1889 c-7 -13 -9 -46 -5 -87 l6 -67 -21 38 c-11 20 -22 37 -25
37 -2 0 5 -30 16 -67 40 -143 66 -217 71 -208 3 6 22 62 42 126 36 118 45 160
25 126 -17 -29 -29 -9 -29 47 0 28 -5 57 -12 64 -19 19 -56 14 -68 -9z"/>
<path d="M524 1855 c-16 -35 -10 -147 10 -184 28 -52 116 -136 175 -166 29
-14 55 -25 57 -22 2 2 -25 25 -61 51 -111 81 -156 153 -165 266 -5 57 -8 70
-16 55z"/>
<path d="M6114 1808 c1 -107 -51 -191 -178 -285 -67 -50 -66 -53 6 -17 67 34
138 102 172 165 25 44 28 59 24 115 -5 87 -25 105 -24 22z"/>
<path d="M3110 1813 c79 -102 144 -233 169 -341 9 -35 9 -36 10 -7 3 112 -43
229 -125 315 -58 61 -93 82 -54 33z"/>
<path d="M3493 1784 c-77 -81 -122 -179 -128 -279 l-5 -80 24 87 c30 103 70
185 123 254 48 60 56 74 46 74 -4 0 -31 -25 -60 -56z"/>
<path d="M1170 1720 c-30 -24 -40 -25 -40 -5 0 8 -4 15 -10 15 -16 0 -12 -43
7 -70 22 -34 65 -80 74 -80 4 0 3 15 -2 32 -16 58 -13 68 26 68 28 0 35 4 35
20 0 19 -27 40 -52 40 -7 0 -24 -9 -38 -20z"/>
<path d="M5406 1718 c-20 -28 -12 -38 30 -38 30 0 34 -3 34 -25 0 -15 -7 -40
-16 -58 l-16 -32 42 40 c41 39 70 88 70 120 0 25 -17 17 -24 -11 l-7 -25 -30
25 c-37 32 -63 33 -83 4z"/>
<path d="M2873 1713 c-41 -23 -72 -63 -79 -105 -6 -33 -6 -33 24 13 28 44 69
69 111 69 36 0 91 -22 127 -51 54 -42 146 -180 102 -153 -8 5 -9 2 -4 -12 49
-120 61 -202 46 -300 -11 -68 -56 -180 -88 -219 -16 -19 -15 -19 8 1 45 38 54
39 34 4 -33 -57 -107 -126 -156 -144 -77 -30 -136 -7 -190 74 -16 24 -17 24
-17 4 -1 -32 40 -87 79 -106 127 -64 274 49 336 257 23 80 24 302 1 392 -43
165 -135 266 -262 287 -29 5 -49 2 -72 -11z"/>
<path d="M3668 1715 c-47 -12 -100 -50 -138 -97 -53 -68 -101 -217 -99 -307 0
-30 4 -24 23 39 24 81 46 128 80 175 37 49 41 61 13 36 -47 -43 -41 -14 8 38
107 115 239 122 285 16 11 -25 22 -45 25 -45 9 0 -5 60 -21 92 -26 50 -100 72
-176 53z m-176 -217 c-7 -7 -12 -8 -12 -2 0 14 12 26 19 19 2 -3 -1 -11 -7
-17z"/>
<path d="M3080 1575 c13 -14 26 -25 28 -25 3 0 -5 11 -18 25 -13 14 -26 25
-28 25 -3 0 5 -11 18 -25z"/>
<path d="M2936 1550 c6 -36 4 -40 -20 -51 -20 -9 -35 -10 -63 -1 -34 10 -35
10 -20 -5 23 -24 106 -22 123 2 19 26 18 81 -2 89 -24 9 -25 9 -18 -34z"/>
<path d="M3696 1574 c-55 -54 33 -124 110 -88 42 20 40 28 -2 12 -60 -22 -110
14 -85 61 14 26 -2 36 -23 15z"/>
<path d="M5355 1470 c-3 -5 -2 -10 4 -10 5 0 13 5 16 10 3 6 2 10 -4 10 -5 0
-13 -4 -16 -10z"/>
<path d="M3297 1279 l-26 -34 26 -28 27 -27 30 30 31 30 -31 31 -31 31 -26
-33z m43 -29 c0 -5 -7 -10 -15 -10 -8 0 -15 5 -15 10 0 6 7 10 15 10 8 0 15
-4 15 -10z"/>
<path d="M995 1251 c-358 -16 -493 -57 -614 -187 -79 -84 -113 -157 -119 -256
-8 -131 41 -198 143 -198 46 0 85 24 85 53 0 46 -64 74 -91 40 -13 -15 -12
-15 7 -5 37 20 78 -33 48 -63 -29 -29 -86 -12 -134 39 -21 23 -24 36 -24 94 2
152 76 258 238 337 161 80 334 112 650 120 l171 4 -80 -15 c-161 -31 -315 -73
-381 -105 -78 -37 -160 -113 -194 -179 -77 -151 7 -350 148 -350 34 0 65 30
56 54 -8 20 -27 20 -66 0 -39 -20 -78 -5 -116 44 -24 31 -27 44 -27 111 0 93
26 153 96 222 53 54 180 119 279 142 81 20 407 66 518 74 263 19 -244 39 -593
24z"/>
<path d="M5040 1251 c-54 -7 -54 -7 -20 -14 19 -4 116 -16 215 -28 395 -45
526 -88 640 -210 105 -113 123 -251 43 -336 -41 -43 -71 -49 -114 -23 -36 23
-54 20 -54 -10 0 -25 29 -40 78 -40 129 0 199 184 127 334 -68 143 -219 224
-513 277 -64 11 -119 23 -122 26 -9 10 344 -7 453 -21 281 -39 485 -142 553
-282 52 -106 42 -239 -21 -280 -31 -20 -89 -24 -106 -7 -17 17 -2 61 22 68 15
5 18 10 10 18 -16 16 -53 -24 -53 -57 0 -43 19 -56 79 -56 49 0 59 4 88 33 89
89 57 283 -69 423 -93 104 -244 157 -496 173 -192 13 -671 21 -740 12z"/>
<path d="M3885 1241 c-56 -5 -67 -8 -35 -9 144 -6 743 -114 925 -167 186 -54
275 -138 275 -262 0 -94 -86 -172 -156 -141 l-25 12 30 18 c38 25 46 50 26 82
-22 33 -43 39 -72 21 -61 -40 -48 -121 24 -152 79 -33 161 0 210 85 73 125 -1
295 -161 368 -57 26 -240 76 -361 99 l-80 15 197 -5 c277 -7 468 -28 579 -65
98 -33 142 -39 96 -14 -16 9 -26 18 -23 21 20 20 249 -79 319 -138 68 -56 71
-105 6 -94 -42 7 -50 -3 -23 -29 21 -22 67 -20 87 2 35 38 14 98 -54 156 -110
94 -413 157 -884 185 -221 13 -797 21 -900 12z"/>
<path d="M1895 1233 c-525 -25 -880 -112 -955 -236 -37 -61 -19 -127 36 -127
26 0 68 35 59 50 -3 6 -15 5 -30 -2 -28 -13 -55 -5 -55 16 0 62 201 183 350
210 l35 7 -35 -20 c-50 -29 -14 -27 85 4 97 30 241 52 435 65 144 10 333 12
295 3 -379 -86 -485 -135 -540 -249 -20 -41 -32 -155 -21 -199 8 -32 61 -92
97 -111 37 -19 102 -18 140 2 29 15 59 65 59 99 0 24 -38 55 -68 55 -62 0 -80
-69 -27 -104 30 -20 32 -32 5 -41 -24 -8 -98 24 -124 53 -28 32 -36 97 -19
154 38 129 158 187 559 269 194 39 485 87 599 98 62 6 -51 8 -365 8 -250 -1
-482 -2 -515 -4z"/>
<path d="M3431 1185 c-3 -123 55 -270 137 -348 121 -112 270 -81 296 63 6 34
6 33 -19 -13 -26 -49 -82 -86 -130 -87 -33 0 -118 46 -151 81 -58 64 -88 110
-76 118 8 5 6 22 -8 61 -11 30 -26 78 -34 105 -12 42 -14 45 -15 20z"/>
<path d="M5935 1077 c127 -92 179 -177 180 -289 0 -64 1 -66 14 -40 21 39 18
110 -7 164 -27 61 -101 140 -167 178 -77 44 -88 36 -20 -13z"/>
<path d="M689 1082 c-24 -16 -67 -54 -95 -85 -80 -87 -104 -183 -65 -257 l19
-34 -6 72 c-4 63 -2 78 22 125 27 56 81 118 151 174 50 40 34 43 -26 5z"/>
<path d="M3280 1049 c0 -74 -72 -250 -136 -334 -19 -26 -32 -50 -29 -53 12
-12 101 96 135 163 27 54 33 78 38 154 2 50 2 91 -2 91 -3 0 -6 -9 -6 -21z"/>
<path d="M3361 1023 c-2 -117 44 -233 125 -317 59 -62 74 -58 25 7 -54 71
-116 206 -134 292 l-15 70 -1 -52z"/>
<path d="M1173 998 c-48 -53 -63 -80 -62 -118 l1 -35 11 28 c12 31 22 33 43
12 36 -36 94 -26 94 16 0 15 -7 19 -35 19 -32 0 -35 3 -35 28 0 16 7 37 15 48
34 44 10 46 -32 2z"/>
<path d="M5454 1015 c4 -11 10 -37 13 -57 5 -36 5 -37 -33 -40 -42 -3 -53 -18
-29 -42 23 -23 49 -20 83 9 l30 25 11 -32 c14 -40 25 -30 17 17 -4 22 -25 56
-53 88 -26 28 -43 43 -39 32z"/>
<path d="M2834 1005 c-18 -14 -17 -15 11 -8 40 9 63 7 81 -8 17 -14 18 -51 2
-67 -9 -9 -7 -13 6 -18 11 -4 22 -1 27 7 14 23 10 76 -7 93 -20 21 -94 21
-120 1z"/>
<path d="M3708 1010 c-26 -16 -33 -68 -13 -90 24 -27 36 -16 23 20 -18 53 21
77 88 54 l39 -13 -24 20 c-25 20 -84 25 -113 9z"/>
<path d="M3510 977 c0 -2 15 -16 33 -33 l32 -29 -29 33 c-28 30 -36 37 -36 29z"/>
<path d="M3282 819 c-43 -132 -49 -179 -13 -98 l20 43 -2 -76 c-2 -61 2 -81
15 -94 14 -15 22 -16 43 -6 22 10 25 17 25 65 0 64 8 76 32 45 21 -26 22 -31
-27 122 -21 63 -41 118 -44 123 -4 4 -26 -52 -49 -124z"/>
<path d="M425 660 c-3 -5 -2 -10 4 -10 5 0 13 5 16 10 3 6 2 10 -4 10 -5 0
-13 -4 -16 -10z"/>
</g>
</svg>
